<svg xmlns="http://www.w3.org/2000/svg" xmlns:xlink="http://www.w3.org/1999/xlink" viewBox="0 0 676 822"><defs><style>.cls-1{fill:#333;}.cls-2{fill:#68a3c3;}.cls-3{fill:none;stroke-width:26px;}.cls-3,.cls-4,.cls-5,.cls-6{stroke:#1d1d1b;}.cls-3,.cls-5,.cls-6{stroke-miterlimit:10;}.cls-4{stroke-linecap:round;stroke-linejoin:round;fill:url(#linear-gradient);}.cls-4,.cls-5,.cls-6{stroke-width:9px;}.cls-5{fill:url(#linear-gradient-2);}.cls-6{fill:url(#linear-gradient-3);}</style><linearGradient id="linear-gradient" x1="440.64" y1="696.06" x2="440.64" y2="211.54" gradientUnits="userSpaceOnUse"><stop offset="0" stop-color="#55b3e6"/><stop offset="1" stop-color="#435ca7"/></linearGradient><linearGradient id="linear-gradient-2" x1="330.35" y1="560.51" x2="330.35" y2="323.64" xlink:href="#linear-gradient"/><linearGradient id="linear-gradient-3" x1="308.35" y1="558.51" x2="308.35" y2="321.64" gradientTransform="matrix(-1, 0, 0, 1, 860.7, 0)" xlink:href="#linear-gradient"/></defs><title>wisp</title><g id="Layer_2" data-name="Layer 2"><ellipse class="cls-1" cx="335" cy="409" rx="325" ry="398"/><path class="cls-2" d="M249.67,126.33c44,28,36.39,14,93.66,68,96.79,91.26,35.31,190.35,116,299,86.71,116.75,232,126,285.67,95,0,0,22.57-86.35,20.67-84.66-58.67,52-153,41.28-202-1.34C477,427,519,295.67,456.33,167c-32.31-66.34-98-102-98-104C358.33,63,249.12,126,249.67,126.33Z" transform="translate(-102 -45)"/><path class="cls-2" d="M515.67,79.67C554,179,561.67,345,561.67,345,560,345,613,222.93,695,225.67c25,.83-50.21-88.52-78-108.67C593.26,99.78,504.05,49.57,515.67,79.67Z" transform="translate(-102 -45)"/><path class="cls-2" d="M659,315s29-42,60-61c16.06-9.84,38.16,73,26,65.67C716.33,302.33,659,315,659,315Z" transform="translate(-102 -45)"/><path class="cls-2" d="M755.5,376.5c-27.37-24.57-77.83-3.83-95.5,9.5-26.49,20-30.32,34.23-25,63,5.94,32.09,26.12,48.11,61.33,48,24.54-.07,61.19-6.06,71.67-28C773.33,457.83,762,382.33,755.5,376.5Z" transform="translate(-102 -45)"/><path class="cls-2" d="M130.67,337c9.83-4.83,114.48,56.77,157.83,118.5,76.08,108.34,24.94,159.86,92.83,236.17C460.25,780.37,583,794,602,799c21.13,5.56-113.83,52.5-130,51-74.72-6.93-141.85-71.35-165-104-66.43-93.72-34-141.33-95-203-42.69-43.15-75-55-98-66C106.22,473.28,102,351.07,130.67,337Z" transform="translate(-102 -45)"/><ellipse class="cls-3" cx="338" cy="411" rx="325" ry="398"/></g><g id="Layer_3" data-name="Layer 3"><path class="cls-4" d="M333,347c2.95-28.71-7.41-31.68-2.5-62,7.61-47,24.62-71.63,23-73C347,206.5,267,250.83,253,309c-6.5,27-.67,44.67-.67,44.67-10.19,3.6-32-17.39-36-21.36a.71.71,0,0,0-1.11.14c-9.78,16.4-2.32,38-3.52,61.88-1.46,28.9-1.67,29.67-6.17,49.17C196,484.73,229,514.33,229,514.33c-5.34,6-22.93-1.11-27.11-2.93a1.08,1.08,0,0,0-1.42.51c-4.24,8.86,7.53,33.49,9.2,35.76,21.16,28.82,54.83,50.83,54.83,50.83a142.13,142.13,0,0,0-6.17,38.5c-.12,15,50.56,4.28,62.17,11,9.5,5.5,13.5,30.61,27.17,37,12.83,6,32.5-17.83,52-17.33C418,668.14,417,697.5,436.5,696c19.66-1.51,15.05-28.81,41.17-29.67,22.17-.73,38.71,21.51,53.33,16,13.92-5.24,8.27-26.63,24-36,19.07-11.36,50.38,5.39,62-5.33,9.82-9.06,0-43.5,0-43.5s22.92-5.3,41.33-23.17c16-15.48,26.41-47.31,19.84-55.14a.42.42,0,0,0-.42-.13c-2.43.54-21.82,4.62-26.75-1.06,0,0,20.83-15.84,28.5-49,6.3-27.25-2.51-46-5-76-1.84-22.13,2.32-47.42-5.48-61.14a.76.76,0,0,0-1.21-.14c-3.94,4-23.85,23.27-36.81,16.61,0,0,12.07-21.36-4.5-57.83-16.08-35.38-79.86-80.47-96.17-78.83a1.46,1.46,0,0,0-1.05,2.33c6.38,8.74,34.6,56.15,30.72,112-1,14.61-8.4,48.36-10,66.5-4.84,54.87,25.21,23.25,19.67,60.5s-26.35,37-29.34,78.67c-.94,13.15.25,25.54-8,31.33-12.11,8.5-30.63-7.13-43.33,1.5-12.33,8.39,1.79,32.1-11,38-7.46,3.44-16.21-7.62-24.5-3.5-11,5.44-14.5,23.5-14.5,23.5s-1.9-17.57-9.33-22.83c-7.69-5.44-19,6.83-28,2-9.86-5.29-2.46-23.21-12.67-34s-26.08-1.23-42.67-6c-32-9.23-53.88-68.6-47.33-118C304.73,400.48,327.72,398.39,333,347Z" transform="translate(-102 -45)"/><path class="cls-5" d="M330.33,559c54.92,10.3,78.31-34.56,77.34-64-2-60.67-39.34-40-45.34-90.67-6.28-53.09,23.71-81.63,19.34-80.66-60,13.33-78.36,90.37-84.67,90-11.33-.67-23.7-16.41-26.67-13.34-18,18.67-30.54,91.3,7.34,129.34C299.05,551.14,319.67,557,330.33,559Z" transform="translate(-102 -45)"/><path class="cls-6" d="M552.36,557c-54.92,10.3-78.3-34.56-77.33-64,2-60.67,39.33-40,45.33-90.67,6.29-53.09-23.7-81.63-19.33-80.66,60,13.33,78.35,90.37,84.67,90,11.33-.67,23.7-16.41,26.66-13.34,18,18.67,30.55,91.3-7.33,129.34C583.65,549.14,563,555,552.36,557Z" transform="translate(-102 -45)"/></g></svg>